# Blender 4.2.0
# www.blender.org
mtllib chao.mtl
o Cubo
v -29.988409 -0.781776 -29.901665
v -29.988409 -6.748833 -29.901665
v -29.988409 -0.781763 30.005100
v -29.988409 -6.748818 30.005100
v 30.230745 -0.781776 -29.901665
v 30.230745 -6.748833 -29.901665
v 30.230745 -0.781763 30.005100
v 30.230745 -6.748818 30.005100
vn -1.0000 -0.0000 -0.0000
vn -0.0000 -0.0000 1.0000
vn 1.0000 -0.0000 -0.0000
vn -0.0000 -0.0000 -1.0000
vn -0.0000 1.0000 -0.0000
vn -0.0000 -1.0000 -0.0000
vt 0.099089 0.997406
vt 0.148634 0.500000
vt 0.148634 0.997406
vt 0.049545 1.000000
vt 0.099089 0.500000
vt 0.099089 1.000000
vt 0.198178 0.500000
vt -0.000000 1.000000
vt 0.049545 0.500000
vt 0.000000 0.000000
vt 0.497406 0.500000
vt -0.000000 0.500000
vt 0.497406 -0.000000
vt 0.994812 0.500000
vt 0.198178 0.997406
vt 0.994813 0.000000
s 0
usemtl Material.001
f 2/1/1 3/2/1 1/3/1
f 4/4/2 7/5/2 3/6/2
f 8/7/3 5/3/3 7/2/3
f 6/8/4 1/9/4 5/4/4
f 7/10/5 1/11/5 3/12/5
f 4/13/6 6/14/6 8/11/6
f 2/1/1 4/5/1 3/2/1
f 4/4/2 8/9/2 7/5/2
f 8/7/3 6/15/3 5/3/3
f 6/8/4 2/12/4 1/9/4
f 7/10/5 5/13/5 1/11/5
f 4/13/6 2/16/6 6/14/6
